HIERARCHY
ROOT SpineBase
{
  OFFSET 0.000000 0.000000 0.000000
  CHANNELS 6 Xposition Yposition Zposition Zrotation Xrotation Yrotation
  JOINT SpineMid
  {
    OFFSET 0.000000 31.025397 0.000000
    CHANNELS 3 Zrotation Xrotation Yrotation
    JOINT SpineShoulder
    {
      OFFSET -0.193495 23.048707 -0.748815
      CHANNELS 3 Zrotation Xrotation Yrotation
      JOINT Neck
      {
        OFFSET -0.068049 7.622544 -0.575174
        CHANNELS 3 Zrotation Xrotation Yrotation
        JOINT Head
        {
          OFFSET -6.378752 11.523320 1.249568
          CHANNELS 3 Zrotation Xrotation Yrotation
          End Site
          {
            OFFSET 0 0 0
          }
        }
      }
      JOINT ShoulderLeft
      {
        OFFSET -10.508210 -2.606889 9.787438
        CHANNELS 3 Zrotation Xrotation Yrotation
        JOINT ElbowLeft
        {
          OFFSET -0.428337 -23.373959 1.717470
          CHANNELS 3 Zrotation Xrotation Yrotation
          JOINT WristLeft
          {
            OFFSET -0.868718 -8.174332 -22.981582
            CHANNELS 3 Zrotation Xrotation Yrotation
            JOINT HandLeft
            {
              OFFSET 5.871319 -4.714577 3.007181
              CHANNELS 3 Zrotation Xrotation Yrotation
              JOINT HandTipLeft
              {
                OFFSET 1.526001 -4.821182 0.124610
                CHANNELS 3 Zrotation Xrotation Yrotation
                End Site
                {
                  OFFSET 0 0 0
                }
              }
              JOINT ThumbLeft
              {
                OFFSET -2.262415 -6.019888 0.247689
                CHANNELS 3 Zrotation Xrotation Yrotation
                End Site
                {
                  OFFSET 0 0 0
                }
              }
            }
          }
        }
      }
      JOINT ShoulderRight
      {
        OFFSET 5.563830 -5.292720 -13.250296
        CHANNELS 3 Zrotation Xrotation Yrotation
        JOINT ElbowRight
        {
          OFFSET 0.193742 -25.975147 -6.676978
          CHANNELS 3 Zrotation Xrotation Yrotation
          JOINT WristRight
          {
            OFFSET -8.750707 -23.958411 0.314797
            CHANNELS 3 Zrotation Xrotation Yrotation
            JOINT HandRight
            {
              OFFSET -0.006598 -6.432515 1.532081
              CHANNELS 3 Zrotation Xrotation Yrotation
              JOINT HandTipRight
              {
                OFFSET -5.632228 -5.028098 -7.994471
                CHANNELS 3 Zrotation Xrotation Yrotation
                End Site
                {
                  OFFSET 0 0 0
                }
              }
              JOINT ThumbRight
              {
                OFFSET 3.247294 -3.814215 0.696124
                CHANNELS 3 Zrotation Xrotation Yrotation
                End Site
                {
                  OFFSET 0 0 0
                }
              }
            }
          }
        }
      }
    }
  }
  JOINT HipLeft
  {
    OFFSET -4.946270 0.918905 1.145753
    CHANNELS 3 Zrotation Xrotation Yrotation
    JOINT KneeLeft
    {
      OFFSET 15.856224 -32.124015 8.509611
      CHANNELS 3 Zrotation Xrotation Yrotation
      JOINT AnkleLeft
      {
        OFFSET 1.327597 -30.330682 3.349812
        CHANNELS 3 Zrotation Xrotation Yrotation
        JOINT FootLeft
        {
          OFFSET -7.610900 -2.525997 -7.568586
          CHANNELS 3 Zrotation Xrotation Yrotation
          End Site
          {
            OFFSET 0 0 0
          }
        }
      }
    }
  }
  JOINT HipRight
  {
    OFFSET 4.611872 1.046536 -8.001872
    CHANNELS 3 Zrotation Xrotation Yrotation
    JOINT KneeRight
    {
      OFFSET -1.949767 -28.416131 -0.433588
      CHANNELS 3 Zrotation Xrotation Yrotation
      JOINT AnkleRight
      {
        OFFSET -0.313752 -38.692519 5.666799
        CHANNELS 3 Zrotation Xrotation Yrotation
        JOINT FootRight
        {
          OFFSET -5.043903 -6.909714 0.172612
          CHANNELS 3 Zrotation Xrotation Yrotation
          End Site
          {
            OFFSET 0 0 0
          }
        }
      }
    }
  }
}
MOTION
Frames: 12
Frame Time: 0.033333
18.490518 160.315271 315.108689 -0.000000 0.000000 43.742790 0.000000 0.000000 -43.742790 -0.000000 0.000000 0.000000 -0.000000 0.000000 0.000000 0.000000 0.000000 0.000000 -0.000000 0.000000 0.000000 -0.000000 0.000000 0.000000 -0.000000 0.000000 0.000000 -0.000000 0.000000 0.000000 0.000000 0.000000 0.000000 0.000000 0.000000 0.000000 -0.000000 0.000000 0.000000 -0.000000 0.000000 0.000000 -0.000000 0.000000 0.000000 -0.000000 0.000000 0.000000 0.000000 0.000000 0.000000 0.000000 0.000000 0.000000 0.000000 0.000000 -43.742790 -0.000000 0.000000 0.000000 -0.000000 0.000000 0.000000 0.000000 0.000000 0.000000 0.000000 0.000000 -43.742790 -0.000000 0.000000 0.000000 -0.000000 0.000000 0.000000 0.000000 0.000000 0.000000
18.427751 160.453031 315.116134 0.025476 0.056450 42.747083 -0.057024 -0.024162 -42.747107 -0.000000 0.000000 0.000000 -0.000000 0.000000 0.000000 0.000000 0.000000 0.000000 -0.000000 0.000000 0.000000 -0.000000 0.000000 0.000000 0.380071 0.386261 0.720743 -2.108792 8.171706 2.070917 0.000000 0.000000 0.000000 0.000000 0.000000 0.000000 -0.000000 0.000000 0.000000 -0.000000 0.000000 0.000000 -1.266489 1.961513 -0.283143 0.717063 -1.221540 0.368713 0.000000 0.000000 0.000000 0.000000 0.000000 0.000000 -0.057024 -0.024162 -42.747107 0.601178 0.696588 0.093274 0.581201 -1.599396 -0.957249 0.000000 0.000000 0.000000 -0.057024 -0.024162 -42.747107 -0.000000 0.000000 0.000000 -0.041821 0.961718 -0.702689 0.000000 0.000000 0.000000
18.408321 160.571077 315.080553 0.042029 0.153352 41.847508 -0.133617 -0.086196 -41.847665 -0.000000 0.000000 0.000000 -0.000000 0.000000 0.000000 0.000000 0.000000 0.000000 -0.000000 0.000000 0.000000 -0.000000 0.000000 0.000000 0.715181 0.804711 1.448480 -3.345517 16.944014 4.537241 0.000000 0.000000 0.000000 0.000000 0.000000 0.000000 -0.000000 0.000000 0.000000 -0.000000 0.000000 0.000000 -2.376630 3.608989 -0.498687 1.585346 -2.588449 0.770636 0.000000 0.000000 0.000000 0.000000 0.000000 0.000000 -1.064644 -0.438834 -42.409544 1.327295 1.895273 0.674568 1.460811 -2.821527 -1.827995 0.000000 0.000000 0.000000 -0.133617 -0.086196 -41.847665 -0.000000 0.000000 0.000000 -0.043629 1.704711 -1.244993 0.000000 0.000000 0.000000
18.432229 160.669409 315.001946 0.049600 0.290867 41.049495 -0.645673 0.628941 -41.073150 0.077980 0.153425 -0.027849 0.637218 0.230524 0.472547 0.000000 0.000000 0.000000 0.772788 -0.493814 0.057213 -0.000000 0.000000 0.000000 0.999315 1.254184 2.179735 -3.711057 25.532155 6.994580 0.000000 0.000000 0.000000 0.000000 0.000000 0.000000 0.772788 -0.493814 0.057213 -0.000000 0.000000 0.000000 -3.354054 4.971041 -0.665410 2.640350 -4.142304 1.223694 0.000000 0.000000 0.000000 0.000000 0.000000 0.000000 -1.479475 -0.545475 -41.784953 1.543494 2.019522 0.832022 2.631072 -3.658832 -2.625326 0.000000 0.000000 0.000000 -0.228422 -0.186781 -41.049993 -0.000000 0.000000 0.000000 -0.012006 2.234617 -1.632042 0.000000 0.000000 0.000000
18.499475 160.748028 314.880313 0.048142 0.469104 40.359231 -0.737454 0.630161 -40.385341 0.019145 0.169228 -0.035013 0.692359 0.288371 0.603664 0.000000 0.000000 0.000000 0.903384 -0.639929 0.067467 -0.000000 0.000000 0.000000 1.226543 1.732953 2.910781 -3.197929 33.256338 9.034146 0.000000 0.000000 0.000000 0.000000 0.000000 0.000000 0.903384 -0.639929 0.067467 -0.607111 -0.520700 0.179091 -3.593376 6.600613 -0.944449 4.325122 -5.993628 1.247767 0.000000 0.000000 0.000000 0.000000 0.000000 0.000000 -1.820000 -0.570516 -41.194793 0.952673 1.158043 0.813189 4.608916 -3.671751 -3.323868 0.000000 0.000000 0.000000 -0.644552 -1.090851 -40.314679 -0.262809 0.779716 -0.047690 0.048617 2.555876 -1.867353 0.000000 0.000000 0.000000
18.610060 160.806933 314.715655 0.037616 0.688120 39.783766 -0.759873 0.531751 -39.809675 -0.082346 0.167201 -0.041545 0.668481 0.337204 0.721155 0.000000 0.000000 0.000000 0.969824 -0.776562 0.072779 -0.000000 0.000000 0.000000 1.391166 2.238717 3.637673 -1.810397 39.732713 10.356090 0.000000 0.000000 0.000000 0.000000 0.000000 0.000000 0.969824 -0.776562 0.072779 -0.753799 -0.457354 0.153757 -4.212429 7.387414 -1.026630 5.460340 -7.947326 2.372803 0.000000 0.000000 0.000000 0.000000 0.000000 0.000000 -2.089046 -0.509838 -40.645370 1.225926 1.058709 0.833642 5.679548 -4.587761 -4.068419 0.000000 0.000000 0.000000 -1.220968 -1.120694 -39.728439 0.184495 0.954129 -0.069819 0.135786 2.671412 -1.952823 0.000000 0.000000 0.000000
18.940820 160.824823 314.498490 0.274587 0.925355 39.345507 -0.871061 0.455083 -39.367812 -0.284168 0.170389 -0.049470 0.631212 0.481691 0.870794 0.000000 0.000000 0.000000 0.972816 -0.894272 0.072967 -0.000000 0.000000 0.000000 1.787483 2.738492 4.487479 1.962658 47.941276 11.000896 0.000000 0.000000 0.000000 0.000000 0.000000 0.000000 0.209017 -0.679888 0.260251 -0.231010 -0.539800 -0.097444 -4.717852 7.993148 -1.080443 8.172700 -10.846089 2.601478 0.000000 0.000000 0.000000 0.000000 0.000000 0.000000 -2.215012 0.898498 -39.776508 0.152589 -4.314508 -0.026808 9.882354 -2.561713 -5.941916 0.000000 0.000000 0.000000 -2.399637 -0.606948 -39.276222 1.197811 1.063638 -0.102439 0.315251 2.577391 -1.885636 0.000000 0.000000 0.000000
18.895534 160.900539 314.133998 -0.187436 1.352341 38.697959 -0.559615 -0.202530 -38.710305 -0.518293 0.064940 -0.062749 0.622346 0.915302 1.129090 0.000000 0.000000 0.000000 1.017029 -0.908116 0.076645 -0.000000 0.000000 0.000000 1.383384 3.187705 4.825028 6.982932 53.438435 10.631811 0.000000 0.000000 0.000000 0.000000 0.000000 0.000000 0.181807 -0.800920 0.279597 -0.298158 -0.093358 -0.236450 -5.049280 8.205501 -1.036538 9.929552 -13.808720 4.244217 0.000000 0.000000 0.000000 0.000000 0.000000 0.000000 -1.911272 0.959505 -38.863619 -0.854843 -7.336945 -0.675003 12.532589 -1.560519 -7.324723 0.000000 0.000000 0.000000 -2.854439 -1.030806 -38.632530 1.772448 1.233662 -0.130899 0.431182 2.038181 -1.489542 0.000000 0.000000 0.000000
19.194559 160.861005 313.917733 -0.122273 1.631486 39.383645 -0.395796 -0.439945 -39.380542 -0.702409 0.041401 -0.064602 0.298026 0.684289 1.099161 0.000000 0.000000 0.000000 0.852605 -1.080758 0.062680 -0.000000 0.000000 0.000000 1.334110 3.661037 5.396994 6.955902 54.019170 10.466467 0.000000 0.000000 0.000000 0.000000 0.000000 0.000000 0.852605 -1.080758 0.062680 -1.205590 0.299298 -0.121547 -5.495039 7.499336 -1.071508 9.868131 -12.226393 3.644983 0.000000 0.000000 0.000000 0.000000 0.000000 0.000000 -2.474947 1.569526 -39.566963 -0.783890 -8.953351 -0.884649 13.682957 -0.803797 -7.806162 0.000000 0.000000 0.000000 -3.780010 -0.862287 -39.311063 2.499166 1.428326 -0.167525 0.387803 1.496007 -1.090498 0.000000 0.000000 0.000000
19.449361 160.861041 313.733289 -0.123454 1.889247 39.299392 -0.154157 -0.655133 -39.277628 -0.752950 0.012870 -0.057036 -0.212135 0.155132 0.923163 0.000000 0.000000 0.000000 0.581607 -1.296859 0.038856 -0.000000 0.000000 0.000000 1.271700 4.448701 6.368045 10.033881 52.902171 8.101578 0.000000 0.000000 0.000000 0.000000 0.000000 0.000000 0.581607 -1.296859 0.038856 -1.178467 0.540772 -0.206675 -5.858476 7.126853 -1.077361 12.438736 -15.835178 5.815096 0.000000 0.000000 0.000000 0.000000 0.000000 0.000000 -2.895189 0.961575 -39.720499 -1.221791 -8.304085 -0.705858 13.606617 -0.508882 -7.269651 0.000000 0.000000 0.000000 -4.583040 -0.891672 -39.221891 4.019499 1.618213 -0.102545 -0.127947 1.109414 -0.881259 0.000000 0.000000 0.000000
19.591836 160.875520 313.575981 -0.161214 2.075554 38.699764 0.094130 -0.750992 -38.661716 -0.703777 -0.007078 -0.045496 -0.750933 -0.453039 0.717723 0.000000 0.000000 0.000000 0.322328 -1.540717 0.014885 -0.000000 0.000000 0.000000 1.227269 4.942820 6.979785 10.680358 49.246114 6.459143 0.000000 0.000000 0.000000 0.000000 0.000000 0.000000 0.000224 -0.753159 0.096900 -0.737924 -0.006083 -0.391570 -6.481637 7.280066 -1.087728 15.155733 -19.382769 7.962083 0.000000 0.000000 0.000000 0.000000 0.000000 0.000000 -3.306244 0.017815 -39.473686 -1.142779 -6.385137 -0.202856 11.901917 -0.290426 -5.854953 0.000000 0.000000 0.000000 -5.196738 -0.761231 -38.623355 4.955972 1.705357 -0.094610 2.606403 -2.365184 1.798000 0.000000 0.000000 0.000000
19.605567 160.936450 313.413716 -0.230061 2.184116 37.839133 0.273457 -0.759418 -37.791400 -0.585039 -0.032134 -0.033080 -0.950330 -0.916065 0.536376 0.000000 0.000000 0.000000 0.133069 -1.719528 -0.003310 -0.000000 0.000000 0.000000 1.587835 5.206531 7.506628 6.854285 41.829445 5.187832 0.000000 0.000000 0.000000 0.000000 0.000000 0.000000 -0.006620 -0.691492 0.037242 -0.643712 -0.183184 -0.368433 -6.797386 8.602119 -0.994591 16.168202 -22.377082 9.946393 0.000000 0.000000 0.000000 0.000000 0.000000 0.000000 -3.596214 -1.304120 -39.050123 -0.776950 -3.334385 0.515114 8.737597 -0.208299 -3.805122 0.000000 0.000000 0.000000 -5.723656 -0.636100 -37.761370 5.679441 1.920243 -0.112493 2.416028 -1.959269 1.348523 0.000000 0.000000 0.000000
